<?xml version="1.0" encoding="utf-8"?>
<!-- Generator: Adobe Illustrator 23.0.1, SVG Export Plug-In . SVG Version: 6.00 Build 0)  -->
<svg version="1.1" id="Слой_1" xmlns="http://www.w3.org/2000/svg" xmlns:xlink="http://www.w3.org/1999/xlink" x="0px" y="0px"
	 viewBox="0 0 170.3 126.6" style="enable-background:new 0 0 170.3 126.6;" xml:space="preserve">
<g>
	<path d="M137.8,48.8c-2.7,0-5.4-0.9-7.6-2.8c-5.1-4.2-5.8-11.8-1.6-16.9L149,4.4c4.2-5.1,11.8-5.8,16.9-1.6s5.8,11.8,1.6,16.9
		l-20.5,24.8C144.7,47.4,141.3,48.8,137.8,48.8z"/>
</g>
<g>
	<path d="M73,126.6c-2.8,0-5.5-1-7.7-2.8l-61-51C-0.8,68.5-1.5,61,2.8,55.9c4.3-5.1,11.8-5.8,16.9-1.5l51.7,43.3l35.6-43.1
		c4.2-5.1,11.8-5.8,16.9-1.6c5.1,4.2,5.8,11.8,1.6,16.9l-43.3,52.4c-2,2.5-5,4-8.1,4.3C73.7,126.6,73.4,126.6,73,126.6z"/>
</g>
</svg>
